<svg width="16" height="16" viewBox="0 0 16 16" fill="none" xmlns="http://www.w3.org/2000/svg">
<path d="M6.25 4.96417H7.40469V10.2501C7.40469 10.3189 7.46094 10.3751 7.52969 10.3751H8.46719C8.53594 10.3751 8.59219 10.3189 8.59219 10.2501V4.96417H9.75C9.85469 4.96417 9.9125 4.84386 9.84844 4.76261L8.09844 2.54698C8.08674 2.53204 8.0718 2.51996 8.05475 2.51165C8.03769 2.50334 8.01897 2.49902 8 2.49902C7.98103 2.49902 7.96231 2.50334 7.94525 2.51165C7.92819 2.51996 7.91326 2.53204 7.90156 2.54698L6.15156 4.76105C6.0875 4.84386 6.14531 4.96417 6.25 4.96417ZM13.7188 9.78136H12.7812C12.7125 9.78136 12.6562 9.83761 12.6562 9.90636V12.3126H3.34375V9.90636C3.34375 9.83761 3.2875 9.78136 3.21875 9.78136H2.28125C2.2125 9.78136 2.15625 9.83761 2.15625 9.90636V13.0001C2.15625 13.2767 2.37969 13.5001 2.65625 13.5001H13.3438C13.6203 13.5001 13.8438 13.2767 13.8438 13.0001V9.90636C13.8438 9.83761 13.7875 9.78136 13.7188 9.78136Z" fill="black" fill-opacity="0.88"/>
</svg>
