<svg width="198" height="32" viewBox="0 0 198 32" fill="none" xmlns="http://www.w3.org/2000/svg">
<path d="M27.2555 32.0001L40.2631 0.474365H50.1251L63.1327 32.0001H52.7606L43.1537 5.51849H47.0644L37.4575 32.0001H27.2555ZM34.992 26.5056L37.5425 18.8494H51.2303L53.7808 26.5056H34.992Z" fill="white"/>
<path d="M64.7337 32.0001V0.474365H79.0591C81.8363 0.474365 84.2309 0.954758 86.243 1.91554C88.2834 2.87633 89.8562 4.25746 90.9614 6.05893C92.0667 7.83037 92.6193 9.93209 92.6193 12.3641C92.6193 14.7961 92.0667 16.8978 90.9614 18.6692C89.8562 20.4407 88.2834 21.8218 86.243 22.8126C84.2309 23.7734 81.8363 24.2538 79.0591 24.2538H70.3023L74.7657 19.7051V32.0001H64.7337ZM74.7657 20.876L70.3023 16.0571H78.4214C79.81 16.0571 80.8302 15.7268 81.482 15.0663C82.1622 14.4057 82.5022 13.505 82.5022 12.3641C82.5022 11.2231 82.1622 10.3224 81.482 9.66187C80.8302 9.00133 79.81 8.67106 78.4214 8.67106H70.3023L74.7657 3.85213V20.876Z" fill="white"/>
<path d="M101.706 32.0001V8.7161H92.9922V0.474365H120.453V8.7161H111.738V32.0001H101.706Z" fill="white"/>
<path d="M118.333 32.0001L131.341 0.474365H141.203L154.21 32.0001H143.838L134.231 5.51849H138.142L128.535 32.0001H118.333ZM126.07 26.5056L128.62 18.8494H142.308L144.859 26.5056H126.07Z" fill="white"/>
<path d="M155.811 32.0001V0.474365H170.137C172.914 0.474365 175.309 0.954758 177.321 1.91554C179.361 2.87633 180.934 4.25746 182.039 6.05893C183.144 7.83037 183.697 9.93209 183.697 12.3641C183.697 14.7961 183.144 16.8978 182.039 18.6692C180.934 20.4107 179.361 21.7467 177.321 22.6775C175.309 23.6083 172.914 24.0736 170.137 24.0736H161.38L165.843 19.7051V32.0001H155.811ZM173.622 32.0001L166.311 20.5157H176.938L184.335 32.0001H173.622ZM165.843 20.876L161.38 16.0571H169.499C170.888 16.0571 171.908 15.7268 172.56 15.0663C173.24 14.4057 173.58 13.505 173.58 12.3641C173.58 11.2231 173.24 10.3224 172.56 9.66187C171.908 9.00133 170.888 8.67106 169.499 8.67106H161.38L165.843 3.85213V20.876Z" fill="white"/>
<path d="M192.407 31.9997C190.825 31.9997 189.497 31.4485 188.424 30.346C187.35 29.2129 186.814 27.7735 186.814 26.0279C186.814 24.2517 187.35 22.8276 188.424 21.7557C189.497 20.6839 190.825 20.1479 192.407 20.1479C193.989 20.1479 195.316 20.6839 196.39 21.7557C197.463 22.8276 198 24.2517 198 26.0279C198 27.7735 197.463 29.2129 196.39 30.346C195.316 31.4485 193.989 31.9997 192.407 31.9997Z" fill="#1677FF"/>
<path d="M0 31.9998V24.9954L13.584 8.24173H0.425085V0H26.6528V6.53034L13.0688 23.284H26.606V31.9998H0Z" fill="#1677FF"/>
</svg>
