<?xml version="1.0" encoding="utf-8"?><svg xmlns="http://www.w3.org/2000/svg" xmlns:xlink="http://www.w3.org/1999/xlink"><symbol viewBox="0 0 16 16" id="arrow-down" xmlns="http://www.w3.org/2000/svg"><path d="M13.47 7.27h-1.266a.253.253 0 00-.19.086l-3.42 3.942V2.5a.125.125 0 00-.125-.125h-.937a.125.125 0 00-.125.125v8.798l-3.42-3.942a.248.248 0 00-.19-.086H2.532a.125.125 0 00-.094.207l5.186 5.976a.499.499 0 00.755 0l5.184-5.976a.124.124 0 00-.094-.207z" fill-opacity=".88"/></symbol><symbol viewBox="0 0 16 16" id="arrow-up" xmlns="http://www.w3.org/2000/svg"><path d="M13.562 8.523L8.376 2.546a.5.5 0 00-.755 0L2.437 8.523a.125.125 0 00.094.206h1.265c.072 0 .14-.031.19-.086l3.42-3.942v8.798c0 .07.056.125.125.125h.937a.125.125 0 00.125-.125V4.701l3.42 3.942a.248.248 0 00.19.086h1.265a.124.124 0 00.094-.206z"/></symbol><symbol viewBox="0 0 16 16" id="car" xmlns="http://www.w3.org/2000/svg"><path d="M5.643 11.426h4.714a.143.143 0 00.143-.143v-1.5a.143.143 0 00-.143-.143h-.714a.143.143 0 00-.143.143v.643h-3v-.643a.143.143 0 00-.143-.143h-.714a.143.143 0 00-.143.143v1.5c0 .078.065.143.143.143zm6.072-2.197a.714.714 0 101.428 0 .714.714 0 00-1.428 0zm4.267-2.993l-.423-.739a.143.143 0 00-.194-.052l-.906.529-1.398-3.86a1.14 1.14 0 00-1.088-.794H4.236c-.62 0-1.17.4-1.36.991L1.542 5.976l-.907-.529a.143.143 0 00-.195.052l-.423.737a.14.14 0 00.052.193l1.079.629-.26.714a.51.51 0 00-.032.179v6.218c0 .28.211.507.47.507h1.207c.22 0 .41-.166.457-.399l.138-.673h9.743l.137.674a.48.48 0 00.457.398h1.208c.258 0 .47-.227.47-.508V7.952a.51.51 0 00-.033-.179l-.259-.714 1.077-.629a.143.143 0 00.053-.193zm-2.125 1.85v4.232H2.143V8.087l.279-.767h11.157l.278.767zM4.084 2.75l.01-.023.006-.024a.142.142 0 01.136-.098h7.636l1.346 3.715H2.786l1.298-3.57zM2.857 9.23a.714.714 0 101.43 0 .714.714 0 00-1.43 0z"/></symbol><symbol viewBox="0 0 16 16" id="cart" xmlns="http://www.w3.org/2000/svg"><path d="M14.42 10.967H5.117l.467-.951 7.763-.014a.543.543 0 00.534-.447l1.075-6.018a.543.543 0 00-.533-.639l-9.875-.032-.084-.397a.555.555 0 00-.54-.438H1.507a.552.552 0 100 1.103h1.968l.368 1.754.908 4.395-1.169 1.908a.546.546 0 00-.047.575.55.55 0 00.493.303h.98a1.604 1.604 0 001.281 2.567 1.604 1.604 0 001.282-2.567h2.518a1.604 1.604 0 102.884.964c0-.349-.116-.688-.322-.964h1.77a.553.553 0 00.552-.552.553.553 0 00-.553-.55zM4.778 3.953l8.997.03-.881 4.934-7.067.013-1.049-4.977zm1.514 9.574a.495.495 0 010-.988.495.495 0 010 .988zm5.08 0a.495.495 0 010-.988.495.495 0 010 .988z"/></symbol><symbol viewBox="0 0 16 16" id="chat" xmlns="http://www.w3.org/2000/svg"><path fill-rule="evenodd" clip-rule="evenodd" d="M14.167 6.667A4.833 4.833 0 004.55 5.97a.5.5 0 11-.99-.143A5.835 5.835 0 1114.478 9.42l.414 2.223a.5.5 0 01-.584.583l-2.222-.414c-.558.3-1.17.51-1.818.615a.5.5 0 11-.16-.988 4.8 4.8 0 001.642-.584.5.5 0 01.341-.059l1.684.314-.314-1.684a.5.5 0 01.06-.342 4.81 4.81 0 00.646-2.416zM1.833 11a3.167 3.167 0 111.584 2.743.5.5 0 00-.342-.058l-.933.174.173-.934a.5.5 0 00-.058-.342A3.15 3.15 0 011.833 11zM5 6.833a4.167 4.167 0 00-3.7 6.084l-.275 1.475a.5.5 0 00.583.583l1.475-.274A4.167 4.167 0 105 6.833z"/></symbol><symbol viewBox="0 0 14 14" id="chat-2" xmlns="http://www.w3.org/2000/svg"><path d="M7.834 5.756a.55.55 0 00-.56.547.55.55 0 00.56.547.544.544 0 00.533-.547.544.544 0 00-.533-.547zm-3.828 0a.55.55 0 00-.56.547.55.55 0 00.56.547.544.544 0 00.533-.547.544.544 0 00-.533-.547z" fill-opacity=".88"/><path d="M12.223 4.716A4.702 4.702 0 009.639 2.94v.001a5.03 5.03 0 00-7.807.395 5.014 5.014 0 00.082 6.003l.011 1.812a.437.437 0 00.569.414l1.73-.545a5.02 5.02 0 001.402.282l-.007.005a4.75 4.75 0 004.28.67l1.737.566a.437.437 0 00.573-.416v-1.831a4.729 4.729 0 00.014-5.579zM4.416 10.05l-.164-.069-1.353.424-.014-1.422-.11-.123a4.047 4.047 0 01-.15-4.936 4.051 4.051 0 015.647-.902 4.034 4.034 0 01.902 5.633 4.065 4.065 0 01-4.758 1.395zm6.905-.233l-.11.137.014 1.422-1.34-.451-.164.068a3.776 3.776 0 01-2.338.095H7.38a5.015 5.015 0 003.194-6.635l.008.005c.315.225.603.507.848.847a3.711 3.711 0 01-.11 4.512z" fill-opacity=".88"/><path d="M5.92 5.756a.55.55 0 00-.56.547.55.55 0 00.56.547.544.544 0 00.533-.547.544.544 0 00-.533-.547z" fill-opacity=".88"/></symbol><symbol viewBox="0 0 12 12" id="check" xmlns="http://www.w3.org/2000/svg"><path d="M10.69 2.23h-.82a.4.4 0 00-.3.14L4.74 8.49 2.43 5.55a.4.4 0 00-.3-.14h-.82a.1.1 0 00-.07.15l3.2 4.07c.16.19.45.19.6 0l5.72-7.25a.1.1 0 00-.07-.15"/></symbol><symbol viewBox="0 0 24 24" id="check-circle" xmlns="http://www.w3.org/2000/svg"><path d="M12 1.5C6.202 1.5 1.5 6.202 1.5 12S6.202 22.5 12 22.5 22.5 17.798 22.5 12 17.798 1.5 12 1.5zm4.535 7.071L11.6 15.415a.745.745 0 01-1.212 0l-2.922-4.05a.188.188 0 01.152-.298h1.1c.238 0 .466.115.606.312l1.67 2.316 3.684-5.11a.75.75 0 01.607-.312h1.099c.152 0 .241.174.152.298z"/></symbol><symbol viewBox="0 0 12 12" id="chevron-down" xmlns="http://www.w3.org/2000/svg"><path d="M10.36 3h-.88c-.06 0-.116.03-.15.077L6 7.667l-3.33-4.59A.188.188 0 002.52 3h-.88a.094.094 0 00-.076.149l4.132 5.696c.15.207.457.207.606 0l4.132-5.696A.093.093 0 0010.36 3z"/></symbol><symbol viewBox="0 0 14 14" id="chevron-left" xmlns="http://www.w3.org/2000/svg"><path d="M9.898 2.984V1.927a.11.11 0 00-.176-.086L3.56 6.655a.436.436 0 000 .688l6.163 4.814a.109.109 0 00.176-.086v-1.057a.221.221 0 00-.083-.172L4.893 7l4.922-3.843a.221.221 0 00.083-.173z"/></symbol><symbol viewBox="0 0 14 14" id="chevron-right" xmlns="http://www.w3.org/2000/svg"><path d="M10.469 6.656L4.305 1.842a.109.109 0 00-.176.086v1.057c0 .067.031.13.083.172L9.134 7l-4.922 3.843a.217.217 0 00-.083.172v1.057a.11.11 0 00.176.087l6.164-4.814a.436.436 0 000-.69z"/></symbol><symbol viewBox="0 0 7 7" id="chevron-up" xmlns="http://www.w3.org/2000/svg"><path d="M6.09 5.16L3.68 1.84a.22.22 0 00-.36 0L.92 5.16a.05.05 0 00.04.09h.5q.06 0 .1-.05L3.5 2.53 5.44 5.2q.04.05.09.05h.51q.08-.01.05-.09"/></symbol><symbol viewBox="0 0 16 16" id="close" xmlns="http://www.w3.org/2000/svg"><path fill-rule="evenodd" clip-rule="evenodd" d="M13.14 1.827h.002l1.03 1.031.001.002-.001.002L9.034 8l5.138 5.137.001.002v.001l-.001.002-1.03 1.03h-.005L8 9.034l-5.137 5.138h-.005l-1.03-1.03-.001-.002v-.001l.001-.002L6.966 8 1.828 2.862l-.001-.001v-.002l.001-.001 1.03-1.03.002-.001h.003L8 6.966l5.137-5.137.002-.001h.001z"/></symbol><symbol viewBox="0 0 14 14" id="copy" xmlns="http://www.w3.org/2000/svg"><path d="M11.375.875H4.047a.11.11 0 00-.11.11v.765c0 .06.05.11.11.11h6.781v9.406c0 .06.05.109.11.109h.765c.06 0 .11-.05.11-.11V1.313a.437.437 0 00-.438-.437zm-1.75 1.75h-7a.437.437 0 00-.438.438v7.255c0 .116.047.227.129.31l2.37 2.368a.49.49 0 00.1.076v.026h.058a.432.432 0 00.15.027h4.631a.437.437 0 00.438-.438V3.063a.437.437 0 00-.438-.438zm-4.84 9.08l-1.177-1.178h1.177v1.179zm4.293.436H5.66v-1.942a.547.547 0 00-.547-.547H3.172V3.61h5.906v8.532z" fill-opacity=".88"/></symbol><symbol viewBox="0 0 16 16" id="credit-card" xmlns="http://www.w3.org/2000/svg"><path fill-rule="evenodd" clip-rule="evenodd" d="M1.733 2.833a.9.9 0 00-.9.9v8.534a.9.9 0 00.9.9h12.534a.9.9 0 00.9-.9V3.733a.9.9 0 00-.9-.9H1.733zm.1 2.667V3.833h12.334V5.5H1.833zm0 1h12.334v5.667H1.833V6.5zM3.5 9.333a1.167 1.167 0 112.333 0 1.167 1.167 0 01-2.333 0z"/></symbol><symbol viewBox="0 0 16 16" id="delete" xmlns="http://www.w3.org/2000/svg"><path d="M5.625 2.875H5.5a.125.125 0 00.125-.125v.125h4.75V2.75c0 .069.056.125.125.125h-.125V4H11.5V2.75a1 1 0 00-1-1h-5a1 1 0 00-1 1V4h1.125V2.875zM13.5 4h-11a.5.5 0 00-.5.5V5c0 .069.056.125.125.125h.944l.386 8.172a1 1 0 00.998.953h7.094a.999.999 0 00.998-.953l.386-8.172h.944A.125.125 0 0014 5v-.5a.5.5 0 00-.5-.5zm-2.073 9.125H4.573l-.378-8h7.61l-.378 8z" fill-opacity=".88"/></symbol><symbol viewBox="0 0 16 16" id="dollar" xmlns="http://www.w3.org/2000/svg"><path d="M8 1a7 7 0 10.001 14.001A7 7 0 008 1zm0 12.813A5.813 5.813 0 018 2.187a5.813 5.813 0 010 11.626zm.745-6.176l-.397-.092V5.447c.594.081.961.453 1.024.91.008.062.06.107.123.107h.702a.127.127 0 00.125-.137c-.095-.974-.897-1.599-1.967-1.707v-.51a.125.125 0 00-.125-.126h-.44a.125.125 0 00-.124.125v.516c-1.107.108-1.972.719-1.972 1.86 0 1.056.778 1.565 1.595 1.76l.386.099v2.23c-.69-.093-1.078-.461-1.158-.958a.124.124 0 00-.123-.104h-.722a.125.125 0 00-.125.136c.07.86.722 1.65 2.112 1.752v.49c0 .07.057.126.125.126h.444a.126.126 0 00.125-.127l-.003-.495c1.223-.108 2.098-.763 2.098-1.938-.001-1.084-.69-1.568-1.703-1.818zm-1.072-.253a2.286 2.286 0 01-.234-.078c-.528-.19-.773-.498-.773-.895 0-.567.43-.89 1.007-.964v1.937zm.675 3.194V8.49c.049.014.093.025.138.034.739.225.987.538.987 1.018 0 .61-.459.978-1.125 1.037z"/></symbol><symbol viewBox="0 0 14 14" id="download" xmlns="http://www.w3.org/2000/svg"><path d="M6.914 9.037a.11.11 0 00.172 0L8.617 7.1a.11.11 0 00-.086-.177H7.518V2.297a.11.11 0 00-.11-.11h-.82a.11.11 0 00-.109.11v4.625H5.47a.11.11 0 00-.086.176l1.53 1.94zm5.09-.478h-.82a.11.11 0 00-.11.109v2.105H2.926V8.668a.11.11 0 00-.11-.11h-.82a.11.11 0 00-.11.11v2.707c0 .242.196.438.438.438h9.352a.437.437 0 00.437-.438V8.668a.11.11 0 00-.11-.11z"/></symbol><symbol viewBox="0 0 16 16" id="edit" xmlns="http://www.w3.org/2000/svg"><path d="M4.027 11.75a.63.63 0 00.093-.008l2.628-.46a.153.153 0 00.083-.044l6.624-6.624a.155.155 0 00.034-.17.155.155 0 00-.034-.05l-2.597-2.599a.155.155 0 00-.111-.045.155.155 0 00-.111.045L4.013 8.42a.159.159 0 00-.044.083l-.461 2.628a.523.523 0 00.147.465.53.53 0 00.372.155zM5.08 9.025l5.667-5.666 1.145 1.146-5.667 5.665-1.39.246.245-1.391zm8.67 4.037H2.25a.5.5 0 00-.5.5v.563c0 .069.056.125.125.125h12.25a.125.125 0 00.125-.125v-.563a.5.5 0 00-.5-.5z" fill-opacity=".88"/></symbol><symbol viewBox="0 0 14 14" id="eye" xmlns="http://www.w3.org/2000/svg"><path d="M12.882 6.647C11.586 3.917 9.627 2.543 7 2.543c-2.628 0-4.585 1.374-5.881 4.106a.824.824 0 000 .704c1.296 2.73 3.255 4.104 5.881 4.104 2.628 0 4.586-1.374 5.882-4.106a.824.824 0 000-.704zM7 10.473c-2.205 0-3.82-1.119-4.959-3.473 1.14-2.354 2.754-3.473 4.96-3.473 2.204 0 3.82 1.119 4.958 3.473C10.82 9.354 9.207 10.473 7 10.473zm-.055-5.88a2.406 2.406 0 100 4.813 2.406 2.406 0 000-4.812zm0 3.938a1.53 1.53 0 11-.001-3.06 1.53 1.53 0 01.001 3.06z"/></symbol><symbol viewBox="0 0 16 16" id="eye-invisible" xmlns="http://www.w3.org/2000/svg"><path d="M14.722 7.597c-.55-1.157-1.203-2.1-1.961-2.83l-.795.794c.648.62 1.213 1.43 1.701 2.44-1.3 2.69-3.145 3.968-5.667 3.968a6.048 6.048 0 01-2.092-.35l-.861.862c.885.409 1.87.613 2.953.613 3.003 0 5.244-1.564 6.722-4.692a.942.942 0 000-.805zm-.993-5.01l-.666-.667a.125.125 0 00-.177 0l-1.71 1.709c-.941-.482-2-.722-3.176-.722-3.003 0-5.244 1.564-6.722 4.692a.942.942 0 000 .805c.59 1.243 1.302 2.24 2.133 2.99l-1.653 1.653a.125.125 0 000 .177l.667.667a.125.125 0 00.176 0L13.73 2.764a.125.125 0 000-.177zM2.333 8C3.634 5.31 5.48 4.032 8 4.032c.852 0 1.627.146 2.33.443L9.232 5.574a2.75 2.75 0 00-3.721 3.72l-1.304 1.304C3.486 9.96 2.864 9.098 2.333 8zm3.855 0a1.752 1.752 0 012.284-1.667L6.271 8.535A1.75 1.75 0 016.188 8z"/><path d="M7.938 9.75c-.054 0-.108-.002-.16-.007l-.826.825a2.752 2.752 0 003.554-3.553l-.826.825a1.749 1.749 0 01-1.742 1.91z"/></symbol><symbol viewBox="0 0 16 16" id="filter" xmlns="http://www.w3.org/2000/svg"><path d="M13.752 2.406H2.248a.5.5 0 00-.43.75l3.635 6.178v3.76c0 .276.222.5.497.5h4.1a.498.498 0 00.497-.5v-3.76l3.636-6.178a.5.5 0 00-.431-.75zM9.428 12.47H6.572v-2.44H9.43v2.438h-.002zm.15-3.697l-.148.26H6.57l-.148-.26-3.098-5.24h9.353l-3.099 5.24z"/></symbol><symbol viewBox="0 0 12 12" id="filter-filled" xmlns="http://www.w3.org/2000/svg"><path d="M4.09 9.82c0 .208.166.375.373.375h3.075a.373.373 0 00.372-.375V7.523H4.09V9.82zm6.224-8.015H1.686a.375.375 0 00-.322.562l2.593 4.406h4.088l2.593-4.406a.376.376 0 00-.324-.562z"/></symbol><symbol viewBox="0 0 16 16" id="folder" xmlns="http://www.w3.org/2000/svg"><path d="M13.75 4.662H8.14L6.309 2.91a.127.127 0 00-.086-.034H2.25a.5.5 0 00-.5.5v9.25a.5.5 0 00.5.5h11.5a.5.5 0 00.5-.5V5.162a.5.5 0 00-.5-.5zM13.125 12H2.875V4H5.82l1.87 1.787h5.435V12z" fill-opacity=".88"/></symbol><symbol viewBox="0 0 16 16" id="heart" xmlns="http://www.w3.org/2000/svg"><path d="M14.422 4.43a4.065 4.065 0 00-.89-1.293 4.146 4.146 0 00-2.912-1.184A4.173 4.173 0 008 2.876a4.173 4.173 0 00-2.62-.923 4.146 4.146 0 00-2.913 1.184A4.038 4.038 0 001.25 6.023c0 .52.106 1.062.317 1.614.177.461.43.94.753 1.422.513.764 1.218 1.56 2.092 2.369a23.385 23.385 0 002.947 2.301l.37.238a.502.502 0 00.54 0l.37-.238a23.68 23.68 0 002.947-2.301c.875-.808 1.58-1.605 2.092-2.37.324-.482.578-.96.753-1.421a4.52 4.52 0 00.317-1.614 3.977 3.977 0 00-.326-1.592zM8 12.73S2.437 9.168 2.437 6.024c0-1.592 1.318-2.883 2.943-2.883A2.95 2.95 0 018 4.71a2.95 2.95 0 012.62-1.569c1.625 0 2.943 1.29 2.943 2.883C13.563 9.167 8 12.731 8 12.731z"/></symbol><symbol viewBox="0 0 24 24" id="heart-filled" xmlns="http://www.w3.org/2000/svg"><path d="M21.63 6.65a6 6 0 00-3.3-3.25 6.2 6.2 0 00-6.33.91 6 6 0 00-3.93-1.38 6.2 6.2 0 00-5.7 3.72q-.5 1.14-.5 2.38 0 1.18.48 2.43.4 1.04 1.13 2.13a21 21 0 003.14 3.55c2.17 2.01 4.33 3.4 4.42 3.45l.55.36c.25.16.57.16.81 0l.56-.36c.09-.05 2.24-1.44 4.42-3.45a21 21 0 003.14-3.55q.72-1.1 1.13-2.13.47-1.25.47-2.43 0-1.24-.49-2.38"/></symbol><symbol viewBox="0 0 16 16" id="inbox" xmlns="http://www.w3.org/2000/svg"><path d="M13.832 6.974l-.004-.013-1.753-4.454a.603.603 0 00-.575-.425H4.394a.603.603 0 00-.577.43l-1.639 4.41-.004.011-.003.013a.58.58 0 00-.016.23.965.965 0 00-.003.076v5.717a.951.951 0 00.95.95h9.8c.523 0 .95-.427.951-.95V7.252l-.001-.058a.608.608 0 00-.02-.22zM9.21 6.302l-.005.245C9.192 7.25 8.708 7.721 8 7.721c-.345 0-.642-.111-.856-.322-.214-.211-.331-.505-.337-.852l-.005-.245H3.586l1.242-3.02h6.238l1.276 3.02H9.21zm-5.86 1.2h2.458c.38.892 1.188 1.419 2.194 1.419.526 0 1.015-.147 1.41-.425a2.31 2.31 0 00.793-.994h2.445v5.217h-9.3V7.502z"/></symbol><symbol viewBox="0 0 16 16" id="info-circle" xmlns="http://www.w3.org/2000/svg"><path d="M8 1a7 7 0 10.001 14.001A7 7 0 008 1zm0 12.813A5.813 5.813 0 018 2.187a5.813 5.813 0 010 11.626z"/><path d="M7.25 5.25a.75.75 0 101.5 0 .75.75 0 00-1.5 0zM8.375 7h-.75a.125.125 0 00-.125.125v4.25c0 .069.056.125.125.125h.75a.125.125 0 00.125-.125v-4.25A.125.125 0 008.375 7z"/></symbol><symbol viewBox="0 0 16 16" id="info-circle-fill" xmlns="http://www.w3.org/2000/svg"><path d="M8 1a7 7 0 10.001 14.001A7 7 0 008 1zm.5 10.375a.125.125 0 01-.125.125h-.75a.125.125 0 01-.125-.125v-4.25c0-.069.056-.125.125-.125h.75c.069 0 .125.056.125.125v4.25zM8 6a.75.75 0 010-1.5A.75.75 0 018 6z"/></symbol><symbol viewBox="0 0 16 16" id="line-chart" xmlns="http://www.w3.org/2000/svg"><path d="M13.875 12.375H3.125v-9.75A.125.125 0 003 2.5h-.875A.125.125 0 002 2.625v10.75c0 .069.056.125.125.125h11.75a.125.125 0 00.125-.125V12.5a.125.125 0 00-.125-.125zm-9.097-2.41a.125.125 0 00.177 0l2.16-2.15L9.11 9.82a.125.125 0 00.177 0l4.303-4.301a.125.125 0 000-.177l-.619-.619a.125.125 0 00-.176 0L9.2 8.316 7.21 6.312a.125.125 0 00-.177 0L4.16 9.168a.125.125 0 000 .177l.617.62z"/></symbol><symbol viewBox="0 0 16 16" id="lock" xmlns="http://www.w3.org/2000/svg"><path d="M13 7.25h-1.063v-3.5a2 2 0 00-2-2H6.063a2 2 0 00-2 2v3.5H3a.5.5 0 00-.5.5v6a.5.5 0 00.5.5h10a.5.5 0 00.5-.5v-6a.5.5 0 00-.5-.5zm-7.813-3.5c0-.483.393-.875.875-.875h3.875c.483 0 .876.392.876.875v3.5H5.186v-3.5zm7.188 9.375h-8.75v-4.75h8.75v4.75zm-4.813-2.172v.828c0 .069.057.125.125.125h.625a.125.125 0 00.126-.125v-.828a.75.75 0 10-.876 0z" fill-opacity=".88"/></symbol><symbol viewBox="0 0 16 16" id="logout" xmlns="http://www.w3.org/2000/svg"><path d="M13.562 11.437h-1.098a.246.246 0 00-.193.09 5.53 5.53 0 01-4.266 2.003 5.512 5.512 0 01-3.915-1.62 5.52 5.52 0 01-1.187-1.758A5.477 5.477 0 012.468 8 5.505 5.505 0 014.09 4.09a5.529 5.529 0 013.916-1.621 5.53 5.53 0 014.266 2.003c.046.058.118.09.192.09h1.098c.099 0 .16-.109.105-.192a6.721 6.721 0 00-5.678-3.09A6.711 6.711 0 001.28 8.068a6.723 6.723 0 006.725 6.65 6.723 6.723 0 005.66-3.09.125.125 0 00-.104-.191zm1.39-3.536l-2.218-1.75a.125.125 0 00-.203.098v1.188H7.625a.125.125 0 00-.125.125v.875c0 .068.056.125.125.125h4.906v1.187c0 .105.122.164.203.098l2.217-1.75a.125.125 0 000-.196z"/></symbol><symbol viewBox="0 0 12 12" id="mail" xmlns="http://www.w3.org/2000/svg"><path d="M11.571 1.283H.43a.428.428 0 00-.43.429v8.571c0 .237.192.429.429.429H11.57a.428.428 0 00.429-.429V1.712a.428.428 0 00-.429-.429zm-.535 1.484v6.98H.964v-6.98l-.37-.288.527-.676.573.446h8.613l.573-.446.527.676-.371.288zm-.729-.52L6 5.596 1.693 2.247l-.573-.445-.527.676.37.288 4.575 3.557a.75.75 0 00.92 0l4.578-3.556.37-.288-.527-.676-.572.444z"/></symbol><symbol viewBox="0 0 12 12" id="mark" xmlns="http://www.w3.org/2000/svg"><path d="M10.589 3.016a4.854 4.854 0 00-1.07-1.55A5.023 5.023 0 006 .041c-.672 0-1.323.129-1.936.382a4.989 4.989 0 00-1.583 1.042 4.87 4.87 0 00-1.07 1.55 4.757 4.757 0 00-.394 1.901c0 .946.226 1.887.671 2.795a8.86 8.86 0 001.487 2.118 11.96 11.96 0 002.523 2.049.587.587 0 00.6 0 11.96 11.96 0 002.523-2.05 8.82 8.82 0 001.487-2.117 6.278 6.278 0 00.673-2.794c0-.659-.132-1.299-.393-1.901zM6 10.932c-.882-.561-4.018-2.783-4.018-6.015 0-1.043.417-2.023 1.174-2.763A4.05 4.05 0 016 1.005c1.076 0 2.085.409 2.845 1.15a3.831 3.831 0 011.173 2.762c0 3.232-3.135 5.454-4.018 6.015zm0-8.266A2.357 2.357 0 106 7.38a2.357 2.357 0 000-4.714zm1.06 3.418a1.494 1.494 0 01-1.06.44 1.495 1.495 0 01-1.386-.927 1.495 1.495 0 01.326-1.635A1.49 1.49 0 016 3.523c.4 0 .777.156 1.06.44.285.283.44.66.44 1.06s-.155.777-.44 1.06z"/></symbol><symbol viewBox="0 0 16 16" id="menu" xmlns="http://www.w3.org/2000/svg"><path d="M14.125 2.5H1.875a.125.125 0 00-.125.125v1c0 .069.056.125.125.125h12.25a.125.125 0 00.125-.125v-1a.125.125 0 00-.125-.125zm0 9.75H1.875a.125.125 0 00-.125.125v1c0 .069.056.125.125.125h12.25a.125.125 0 00.125-.125v-1a.125.125 0 00-.125-.125zm0-4.875H1.875a.125.125 0 00-.125.125v1c0 .069.056.125.125.125h12.25a.125.125 0 00.125-.125v-1a.125.125 0 00-.125-.125z"/></symbol><symbol viewBox="0 0 14 14" id="message" xmlns="http://www.w3.org/2000/svg"><path d="M6.344 7a.656.656 0 101.312 0 .656.656 0 00-1.312 0zm2.734 0a.656.656 0 101.313 0 .656.656 0 00-1.313 0zM3.61 7a.656.656 0 101.313 0A.656.656 0 003.61 7zm9.04-2.373A6.128 6.128 0 007 .875h-.027A6.11 6.11 0 00.875 7.029c.005.95.23 1.885.656 2.733v2.078a.629.629 0 00.63.629H4.24a6.145 6.145 0 002.733.656H7a6.13 6.13 0 002.362-.469 6.076 6.076 0 001.952-1.302 6.112 6.112 0 001.81-4.327 6.101 6.101 0 00-.476-2.4zm-2.065 5.988A5.059 5.059 0 017 12.085h-.023a5.103 5.103 0 01-2.367-.594l-.115-.061H2.57V9.505l-.06-.115a5.104 5.104 0 01-.595-2.367 5.055 5.055 0 011.471-3.606 5.048 5.048 0 013.593-1.503h.023A5.061 5.061 0 0110.6 3.403a5.06 5.06 0 011.489 3.62 5.066 5.066 0 01-1.505 3.592z"/></symbol><symbol class="bkico bkico--minus-square" viewBox="0 0 12 12" id="minus-square" xmlns="http://www.w3.org/2000/svg"><path d="M3.75 5.625c0-.048.042-.09.094-.09h4.312c.052 0 .094.042.094.09v.75c0 .048-.042.09-.094.09H3.844a.093.093 0 01-.094-.09v-.75z" fill-opacity=".88"/><path d="M10.313 1.313H1.687a.375.375 0 00-.375.375v8.624c0 .208.168.376.375.376h8.626a.375.375 0 00.374-.376V1.688a.375.375 0 00-.374-.375zm-.47 8.53H2.157V2.157h7.688v7.688z" fill-opacity=".88"/></symbol><symbol viewBox="0 0 16 16" id="paper" xmlns="http://www.w3.org/2000/svg"><path d="M12.176 3.073a3.78 3.78 0 00-5.34 0L2.76 7.148a.14.14 0 00-.041.1.14.14 0 00.04.1l.577.576a.14.14 0 00.199 0L7.612 3.85a2.663 2.663 0 011.895-.784c.716 0 1.39.278 1.894.784.506.506.784 1.18.784 1.894 0 .716-.278 1.387-.784 1.894L7.245 11.79l-.674.674a1.615 1.615 0 01-2.755-1.14c0-.432.168-.837.472-1.141l4.124-4.122A.551.551 0 018.8 5.9h.001a.545.545 0 01.386.936l-3.37 3.367a.14.14 0 00-.04.1.14.14 0 00.04.1l.577.576a.14.14 0 00.198 0l3.369-3.368c.31-.311.481-.724.481-1.163 0-.439-.172-.853-.481-1.162a1.649 1.649 0 00-2.328 0l-.4.401-3.722 3.72a2.691 2.691 0 00-.794 1.918 2.707 2.707 0 002.71 2.706 2.7 2.7 0 001.917-.792l4.83-4.828a3.756 3.756 0 001.105-2.669 3.744 3.744 0 00-1.104-2.67z" fill-opacity=".88"/></symbol><symbol viewBox="0 0 12 12" id="phone" xmlns="http://www.w3.org/2000/svg"><path d="M10.89 2.341L9.464.916a.921.921 0 00-1.308 0L6.62 2.45a.924.924 0 000 1.31l1.2 1.201a5.43 5.43 0 01-1.157 1.705 5.44 5.44 0 01-1.703 1.16l-1.2-1.202a.921.921 0 00-1.308 0L.915 8.158a.924.924 0 000 1.31l1.425 1.425a1.603 1.603 0 001.385.446c1.773-.292 3.533-1.236 4.954-2.656 1.42-1.422 2.362-3.182 2.657-4.957a1.596 1.596 0 00-.446-1.385zm-.504 1.226C10.126 5.146 9.276 6.72 7.997 8c-1.279 1.279-2.853 2.128-4.432 2.39a.63.63 0 01-.546-.178l-1.4-1.4 1.484-1.484 1.605 1.607.012.012.29-.107a6.446 6.446 0 003.825-3.828l.108-.29-1.618-1.616 1.484-1.485 1.4 1.4a.627.627 0 01.177.546z"/></symbol><symbol viewBox="0 0 14 14" id="picture" xmlns="http://www.w3.org/2000/svg"><path d="M12.688 2.188H1.312a.437.437 0 00-.437.437v8.75c0 .242.196.438.438.438h11.374a.437.437 0 00.438-.438v-8.75a.437.437 0 00-.438-.438zm-.547 8.64H1.859v-.545l1.894-2.247 2.052 2.434 3.192-3.784 3.144 3.726v.416zm0-1.774L9.08 5.425a.109.109 0 00-.167 0L5.805 9.111 3.836 6.777a.109.109 0 00-.166 0L1.86 8.924V3.172h10.28v5.882zm-7.985-2.82a1.203 1.203 0 100-2.406 1.203 1.203 0 000 2.406zm0-1.586a.382.382 0 11.002.765.382.382 0 01-.002-.765z" fill-opacity=".88"/></symbol><symbol viewBox="0 0 16 16" id="plus" xmlns="http://www.w3.org/2000/svg"><path d="M7.531 2.375h.938c.083 0 .125.042.125.125v11c0 .083-.042.125-.125.125H7.53c-.083 0-.125-.042-.125-.125v-11c0-.083.042-.125.125-.125z"/><path d="M2.75 7.406h10.5c.083 0 .125.042.125.125v.938c0 .083-.042.125-.125.125H2.75c-.083 0-.125-.042-.125-.125V7.53c0-.083.042-.125.125-.125z"/></symbol><symbol viewBox="0 0 12 12" id="plus-square" xmlns="http://www.w3.org/2000/svg"><path d="M3.844 6.375h1.781v1.781c0 .052.042.094.094.094h.562a.094.094 0 00.094-.094V6.375h1.781a.094.094 0 00.094-.094V5.72a.094.094 0 00-.094-.094H6.375V3.844a.094.094 0 00-.094-.094H5.72a.094.094 0 00-.094.094v1.781H3.844a.094.094 0 00-.094.094v.562c0 .052.042.094.094.094z" fill-opacity=".88"/><path d="M10.313 1.313H1.687a.375.375 0 00-.375.375v8.624c0 .208.168.376.375.376h8.626a.375.375 0 00.374-.376V1.688a.375.375 0 00-.374-.375zm-.47 8.53H2.157V2.157h7.688v7.688z" fill-opacity=".88"/></symbol><symbol viewBox="0 0 14 14" id="reload" xmlns="http://www.w3.org/2000/svg"><path d="M12.43 2.862l-.772.602A5.738 5.738 0 001.395 6.993 5.74 5.74 0 0012.53 8.967a.11.11 0 00-.067-.14l-.775-.267a.11.11 0 00-.138.066 4.676 4.676 0 01-1.088 1.7 4.673 4.673 0 01-3.324 1.378 4.668 4.668 0 01-3.324-1.379 4.678 4.678 0 01-1.376-3.326 4.679 4.679 0 011.376-3.327 4.672 4.672 0 013.324-1.378 4.667 4.667 0 013.324 1.378c.135.136.262.28.38.43l-.823.642a.11.11 0 00.04.193l2.402.588a.11.11 0 00.135-.105l.01-2.474a.11.11 0 00-.177-.084z"/></symbol><symbol viewBox="0 0 16 16" id="search" xmlns="http://www.w3.org/2000/svg"><path d="M14.213 13.352l-4.058-4.058c.63-.814.97-1.81.97-2.857a4.66 4.66 0 00-1.373-3.314A4.653 4.653 0 006.437 1.75a4.66 4.66 0 00-3.314 1.373A4.65 4.65 0 001.75 6.437c0 1.252.49 2.43 1.373 3.315a4.65 4.65 0 003.314 1.373c1.047 0 2.041-.34 2.855-.969l4.058 4.056a.129.129 0 00.181 0l.681-.68a.129.129 0 000-.18zm-5.3-4.44a3.481 3.481 0 01-2.476 1.025 3.481 3.481 0 01-2.475-1.024 3.481 3.481 0 01-1.025-2.476 3.48 3.48 0 011.026-2.475 3.481 3.481 0 012.474-1.025c.935 0 1.815.363 2.475 1.026a3.481 3.481 0 011.025 2.474c0 .935-.364 1.815-1.024 2.475z"/></symbol><symbol viewBox="0 0 16 16" id="sort" xmlns="http://www.w3.org/2000/svg"><path d="M2.5 4.5h11c.3 0 .5.2.5.5s-.2.5-.5.5h-11c-.3 0-.5-.2-.5-.5s.2-.5.5-.5zm0 3.5H10c.3 0 .5.2.5.5s-.2.5-.5.5H2.5c-.3 0-.5-.2-.5-.5s.2-.5.5-.5zm0 3.5H7c.3 0 .5.2.5.5s-.2.5-.5.5H2.5c-.3 0-.5-.2-.5-.5s.2-.5.5-.5z"/></symbol><symbol viewBox="0 0 16 16" id="sync" xmlns="http://www.w3.org/2000/svg"><path d="M2.625 7.878A5.363 5.363 0 014.197 4.2a5.347 5.347 0 013.802-1.575A5.334 5.334 0 0111.795 4.2c.155.155.3.319.435.49l-.94.735a.125.125 0 00.046.22l2.745.672a.125.125 0 00.155-.12l.013-2.827a.124.124 0 00-.202-.098l-.881.689a6.561 6.561 0 00-11.73 3.91.125.125 0 00.125.129H2.5a.125.125 0 00.125-.122zM14.437 8H13.5a.125.125 0 00-.125.122 5.346 5.346 0 01-1.572 3.678A5.352 5.352 0 018 13.375a5.348 5.348 0 01-4.234-2.066l.94-.734a.125.125 0 00-.047-.22l-2.745-.672a.125.125 0 00-.155.12l-.01 2.828c0 .105.12.164.201.099l.881-.69a6.561 6.561 0 0011.73-3.912.125.125 0 00-.125-.128z"/></symbol><symbol viewBox="0 0 14 14" id="unlock" xmlns="http://www.w3.org/2000/svg"><path d="M11.375 6.344H4.539V3.28c0-.422.343-.765.766-.765h3.39c.423 0 .766.343.766.765v.93c0 .06.05.11.11.11h.765c.06 0 .11-.05.11-.11v-.93a1.75 1.75 0 00-1.75-1.75H5.304a1.75 1.75 0 00-1.75 1.75v3.063h-.93a.437.437 0 00-.438.437v5.25c0 .242.196.438.438.438h8.75a.437.437 0 00.438-.438V6.78a.437.437 0 00-.438-.437zm-.547 5.14H3.172V7.328h7.656v4.156zm-4.21-1.9v.725c0 .06.048.109.109.109h.546c.06 0 .11-.05.11-.11v-.724a.656.656 0 10-.766 0z" fill-opacity=".88"/></symbol><symbol viewBox="0 0 16 16" id="user" xmlns="http://www.w3.org/2000/svg"><path d="M13.414 11.931a5.843 5.843 0 00-1.26-1.867 5.868 5.868 0 00-1.867-1.26l-.019-.007a3.874 3.874 0 10-4.537.002l-.019.007c-.7.296-1.328.719-1.867 1.26a5.87 5.87 0 00-1.72 4.025.125.125 0 00.125.128h.937a.125.125 0 00.125-.122 4.658 4.658 0 011.372-3.192A4.657 4.657 0 018 9.53c1.253 0 2.43.488 3.315 1.374a4.659 4.659 0 011.372 3.192.124.124 0 00.125.122h.938a.125.125 0 00.125-.128 5.825 5.825 0 00-.461-2.16zM8 8.344a2.67 2.67 0 01-1.9-.788 2.67 2.67 0 01-.788-1.9c0-.717.28-1.392.788-1.9A2.67 2.67 0 018 2.97c.717 0 1.392.28 1.9.787a2.67 2.67 0 01.787 1.9 2.67 2.67 0 01-.787 1.9 2.67 2.67 0 01-1.9.788z" fill-opacity=".88"/></symbol><symbol viewBox="0 0 24 24" id="wallet" xmlns="http://www.w3.org/2000/svg"><path d="M20.625 2.625H3.375a.75.75 0 00-.75.75v17.25c0 .415.335.75.75.75h17.25a.75.75 0 00.75-.75V3.375a.75.75 0 00-.75-.75zM19.687 13.5h-7.312v-3h7.313v3zm0 6.188H4.313V4.313h15.375V9h-8.062a.75.75 0 00-.75.75v4.5c0 .415.335.75.75.75h8.063v4.688zM13.595 12a.937.937 0 101.875 0 .937.937 0 00-1.875 0z"/></symbol></svg>