<svg xmlns="http://www.w3.org/2000/svg" xmlns:xlink="http://www.w3.org/1999/xlink" fill="none" viewBox="0 0 180 144"><g fill-opacity=".1" clip-path="url(#a)"><path fill="url(#b)" d="M199.28 116.09a10.7 10.7 0 0 0-13.82-6.1l-98.3 38.1L48.08 47.28a10.6 10.6 0 0 0-6.7-6.31l-27.45-8.8c-2.35-.75-4.8-.67-7.1.22a10.69 10.69 0 0 0 .6 20.13l22.59 7.23 36.27 93.58a24 24 0 0 0-7.43 27.4 24 24 0 0 0 31 13.68 24 24 0 0 0 14.06-29.9l89.26-34.6a10.7 10.7 0 0 0 6.1-13.82M85.14 182.23a10.9 10.9 0 0 1-14.1-6.21 10.9 10.9 0 0 1 20.31-7.88 10.9 10.9 0 0 1-6.21 14.09"/><path fill="url(#c)" d="M93.75 121.3c1 2.59 3.9 3.87 6.48 2.87l79.65-30.87c2.58-1 3.86-3.9 2.86-6.49L151.86 7.17a5 5 0 0 0-6.48-2.86l-28.84 11.18 11.72 30.26-21.95 8.5L94.58 24 65.74 35.18a5 5 0 0 0-2.86 6.48zm57.2-40.82 2.9-11.88a2.1 2.1 0 0 1 3.21-1.24l10.15 6.82a2.1 2.1 0 0 1-.42 3.7l-2.74 1.06 3.14 8.1a2.1 2.1 0 0 1-1.2 2.7l-3.65 1.42a2.1 2.1 0 0 1-2.7-1.2l-3.15-8.1-2.74 1.07a2.1 2.1 0 0 1-2.8-2.45"/></g><defs><linearGradient id="b" x1="100" x2="100" y1="31.66" y2="196.03" gradientUnits="userSpaceOnUse"><stop stop-color="#f0f2f6"/><stop offset="1" stop-color="#646467"/></linearGradient><linearGradient id="c" x1="122.81" x2="122.81" y1="3.97" y2="124.51" gradientUnits="userSpaceOnUse"><stop stop-color="#f0f2f6"/><stop offset="1" stop-color="#646467"/></linearGradient><clipPath id="a"><path fill="#fff" d="M0 0h200v200H0z"/></clipPath></defs></svg>