<svg xmlns="http://www.w3.org/2000/svg" xmlns:xlink="http://www.w3.org/1999/xlink" fill="none" viewBox="0 0 160 144"><path fill="url(#a)" fill-opacity=".1" d="m146.48 36.93-16.67-8.75c-14.63-7.67-21.94-11.51-29.81-11.51S84.82 20.5 70.19 28.18L67.5 29.6l74.36 42.5 33.48-16.75c-5.39-6.1-14.08-10.65-28.86-18.41"/><path fill="url(#b)" fill-opacity=".1" d="m181.24 66.37-33.32 16.66v25.3a6.25 6.25 0 0 1-12.5 0V89.28l-29.17 14.58v78.67c5.98-1.49 12.79-5.06 23.56-10.71l16.67-8.75c17.93-9.4 26.9-14.11 31.88-22.57 4.97-8.45 4.97-18.97 4.97-40.01v-.98c0-15.77 0-25.63-2.1-33.14"/><path fill="url(#c)" fill-opacity=".1" d="M93.75 182.53v-78.67L18.76 66.37c-2.1 7.51-2.1 17.37-2.1 33.14v.98c0 21.04 0 31.56 4.98 40.01 4.98 8.46 13.95 13.16 31.88 22.57l16.67 8.75c10.77 5.65 17.58 9.22 23.56 10.71"/><path fill="url(#d)" fill-opacity=".1" d="M24.66 55.34 100 93.01l28.43-14.21-74.06-42.32-.85.45c-14.78 7.76-23.47 12.32-28.86 18.41"/><defs><linearGradient id="a" x1="121.42" x2="121.42" y1="16.67" y2="72.08" gradientUnits="userSpaceOnUse"><stop stop-color="#f0f2f7"/><stop offset="1" stop-color="#646467"/></linearGradient><linearGradient id="b" x1="144.79" x2="144.79" y1="66.37" y2="182.53" gradientUnits="userSpaceOnUse"><stop stop-color="#f0f2f7"/><stop offset="1" stop-color="#646467"/></linearGradient><linearGradient id="c" x1="55.21" x2="55.21" y1="66.37" y2="182.53" gradientUnits="userSpaceOnUse"><stop stop-color="#f0f2f7"/><stop offset="1" stop-color="#646467"/></linearGradient><linearGradient id="d" x1="76.55" x2="76.55" y1="36.48" y2="93.01" gradientUnits="userSpaceOnUse"><stop stop-color="#f0f2f7"/><stop offset="1" stop-color="#646467"/></linearGradient></defs></svg>