<svg width="152" height="24" viewBox="0 0 152 24" fill="none" xmlns="http://www.w3.org/2000/svg">
<path d="M20.9219 24L30.9075 0.355713H38.4783L48.4639 24H40.5015L33.1265 4.1388H36.1287L28.7537 24H20.9219ZM26.861 19.8792L28.819 14.137H39.3268L41.2847 19.8792H26.861Z" fill="black"/>
<path d="M49.693 24V0.355713H60.6903C62.8223 0.355713 64.6606 0.716007 66.2052 1.4366C67.7716 2.15718 68.979 3.19303 69.8274 4.54413C70.6759 5.87272 71.1001 7.44901 71.1001 9.273C71.1001 11.097 70.6759 12.6733 69.8274 14.0019C68.979 15.3304 67.7716 16.3663 66.2052 17.1094C64.6606 17.83 62.8223 18.1903 60.6903 18.1903H53.9679L57.3944 14.7787V24H49.693ZM57.3944 15.657L53.9679 12.0428H60.2008C61.2668 12.0428 62.05 11.7951 62.5503 11.2997C63.0725 10.8042 63.3335 10.1287 63.3335 9.273C63.3335 8.4173 63.0725 7.74175 62.5503 7.24634C62.05 6.75094 61.2668 6.50324 60.2008 6.50324H53.9679L57.3944 2.88903V15.657Z" fill="black"/>
<path d="M78.0761 24V6.53701H71.3864V0.355713H92.4672V6.53701H85.7775V24H78.0761Z" fill="black"/>
<path d="M90.8401 24L100.826 0.355713H108.397L118.382 24H110.42L103.045 4.1388H106.047L98.672 24H90.8401ZM96.7793 19.8792L98.7373 14.137H109.245L111.203 19.8792H96.7793Z" fill="black"/>
<path d="M119.611 24V0.355713H130.609C132.741 0.355713 134.579 0.716007 136.123 1.4366C137.69 2.15718 138.897 3.19303 139.746 4.54413C140.594 5.87272 141.018 7.44901 141.018 9.273C141.018 11.097 140.594 12.6733 139.746 14.0019C138.897 15.3079 137.69 16.31 136.123 17.0081C134.579 17.7061 132.741 18.0552 130.609 18.0552H123.886L127.313 14.7787V24H119.611ZM133.284 24L127.672 15.3867H135.83L141.508 24H133.284ZM127.313 15.657L123.886 12.0428H130.119C131.185 12.0428 131.968 11.7951 132.469 11.2997C132.991 10.8042 133.252 10.1287 133.252 9.273C133.252 8.4173 132.991 7.74175 132.469 7.24634C131.968 6.75094 131.185 6.50324 130.119 6.50324H123.886L127.313 2.88903V15.657Z" fill="black"/>
<path d="M147.708 24.0002C146.493 24.0002 145.474 23.5867 144.65 22.7599C143.826 21.91 143.414 20.8305 143.414 19.5213C143.414 18.1891 143.826 17.1211 144.65 16.3172C145.474 15.5133 146.493 15.1113 147.708 15.1113C148.922 15.1113 149.941 15.5133 150.766 16.3172C151.59 17.1211 152.002 18.1891 152.002 19.5213C152.002 20.8305 151.59 21.91 150.766 22.7599C149.941 23.5867 148.922 24.0002 147.708 24.0002Z" fill="#1677FF"/>
<path d="M0 23.9999V18.7466L10.4281 6.1813H0.326328V0H20.4607V4.89775L10.0326 17.463H20.4248V23.9999H0Z" fill="#1677FF"/>
</svg>
